<svg xmlns="http://www.w3.org/2000/svg" viewBox="0 0 75 75"><defs><style>.a,.b,.c,.d,.e{fill:#fff;}.b,.c,.d,.e{stroke:#fff;}.b{stroke-miterlimit:13.42;stroke-width:1.22px;}.c,.d{stroke-miterlimit:19.24;}.c,.e{stroke-width:0.49px;}.d{stroke-width:0.87px;}.e{stroke-miterlimit:10;}</style></defs><circle cx="37.5" cy="37.5" r="36.5"/><path class="a" d="M37.05,15a22.3,22.3,0,0,1,6,.83,1.61,1.61,0,0,1,.53-1A23.56,23.56,0,0,0,16.4,26.12h1.26A22.46,22.46,0,0,1,37.05,15Z"/><path class="a" d="M43.16,59a22.41,22.41,0,0,1-25.07-9.61,2.29,2.29,0,0,1-.89.64A23.52,23.52,0,0,0,43.74,60,2.18,2.18,0,0,1,43.16,59Z"/><path class="b" d="M25.91,21.62H29A3.72,3.72,0,0,1,31.6,22.7a3.82,3.82,0,0,1,.79,1.18,3.46,3.46,0,0,1,.3,1.43,3.29,3.29,0,0,1-.32,1.43,3.84,3.84,0,0,1-2,1.93A3.46,3.46,0,0,1,29,29H25.91ZM29,28.2A2.63,2.63,0,0,0,30,28a3,3,0,0,0,.94-.63,3.16,3.16,0,0,0,.67-.91,2.36,2.36,0,0,0,.26-1.11,2.87,2.87,0,0,0-.23-1.11,3.2,3.2,0,0,0-.64-.94,2.91,2.91,0,0,0-.93-.64A2.76,2.76,0,0,0,29,22.39H26.73V28.2Z"/><path class="b" d="M39.76,29v-.74H35V22.36h4.76v-.74H34.18V29Zm-3.61-3.09h3.52v-.74H36.15Z"/><polygon class="b" points="44.45 29.34 40.61 21.62 41.55 21.62 44.45 27.58 47.38 21.62 48.32 21.62 44.45 29.34"/><path class="c" d="M25.91,21.62H29A3.72,3.72,0,0,1,31.6,22.7a3.82,3.82,0,0,1,.79,1.18,3.46,3.46,0,0,1,.3,1.43,3.29,3.29,0,0,1-.32,1.43,3.84,3.84,0,0,1-2,1.93A3.46,3.46,0,0,1,29,29H25.91ZM29,28.2A2.63,2.63,0,0,0,30,28a3,3,0,0,0,.94-.63,3.16,3.16,0,0,0,.67-.91,2.36,2.36,0,0,0,.26-1.11,2.87,2.87,0,0,0-.23-1.11,3.2,3.2,0,0,0-.64-.94,2.91,2.91,0,0,0-.93-.64A2.76,2.76,0,0,0,29,22.39H26.73V28.2Z"/><path class="c" d="M34.18,29V21.62h5.58v.74H35v5.85h4.76V29Zm5.49-3.83v.74H36.15v-.74Z"/><path class="c" d="M44.46,29.34l-3.84-7.72h.94l2.9,6,2.94-6h.94Z"/><polygon class="d" points="19.8 32.28 19.8 33.34 15.88 33.34 15.88 42.79 14.7 42.79 14.7 33.34 10.8 33.34 10.8 32.28 19.8 32.28"/><path class="d" d="M21.26,38.73a4.18,4.18,0,0,0,.5,1.07,4.65,4.65,0,0,0,.76.9,4.07,4.07,0,0,0,1,.66l-.74.92a5.15,5.15,0,0,1-2.05-2A5.59,5.59,0,0,1,20.16,39a5.1,5.1,0,0,1-.2-1.46,5.18,5.18,0,0,1,.42-2.07,5.58,5.58,0,0,1,1.13-1.68,5.29,5.29,0,0,1,1.7-1.14,5.39,5.39,0,0,1,4.17,0,5.25,5.25,0,0,1,1.69,1.14,5.43,5.43,0,0,1,1.14,1.68,5.18,5.18,0,0,1,.42,2.07,5.24,5.24,0,0,1-.81,2.82,5.13,5.13,0,0,1-.92,1.11,4.87,4.87,0,0,1-1.2.81l-.62-.94a4.39,4.39,0,0,0,1-.65,4.08,4.08,0,0,0,.77-.89,5,5,0,0,0,.51-1.07,3.88,3.88,0,0,0,.18-1.18A3.82,3.82,0,0,0,29.18,36a4.13,4.13,0,0,0-.91-1.34,4.43,4.43,0,0,0-1.33-.91,4,4,0,0,0-3.26,0,4.4,4.4,0,0,0-1.35.91A4.47,4.47,0,0,0,21.42,36a4,4,0,0,0-.34,1.59A3.88,3.88,0,0,0,21.26,38.73Z"/><path class="d" d="M39.47,37a2.75,2.75,0,0,0,.68-.75,1.71,1.71,0,0,0,.28-.89,2.26,2.26,0,0,0-.11-.7A2.06,2.06,0,0,0,40,34a1.6,1.6,0,0,0-.49-.48,1.21,1.21,0,0,0-.65-.19H33.61v8.39H38.9a1.14,1.14,0,0,0,.66-.19,1.57,1.57,0,0,0,.48-.48,2.26,2.26,0,0,0,.29-.65,2.52,2.52,0,0,0,.1-.7,1.66,1.66,0,0,0-.28-.89,3,3,0,0,0-.69-.76H37.35V37Zm-7-4.72h6.65a2.09,2.09,0,0,1,1,.25,2.71,2.71,0,0,1,.82.65,3.21,3.21,0,0,1,.57,1,3.53,3.53,0,0,1,.21,1.23,2.46,2.46,0,0,1-.09.67,4,4,0,0,1-.25.6,2.93,2.93,0,0,1-.34.5,3.7,3.7,0,0,1-.35.4L41,38a4.61,4.61,0,0,1,.32.49,2.94,2.94,0,0,1,.26.57,2.31,2.31,0,0,1,.1.64,3.53,3.53,0,0,1-.21,1.23,3.1,3.1,0,0,1-.57,1,2.91,2.91,0,0,1-.82.66,2.2,2.2,0,0,1-1,.24H32.43Z"/><path class="d" d="M51.56,42.79V41.73H44.74V33.34h6.82V32.28h-8V42.79Zm-5.17-4.43h5V37.3h-5Z"/><path class="d" d="M58.45,37.3h1.62a1.19,1.19,0,0,0,.69-.19,1.65,1.65,0,0,0,.48-.47,1.72,1.72,0,0,0,.27-.62,2.47,2.47,0,0,0,.09-.64,2.54,2.54,0,0,0-.11-.7,2.3,2.3,0,0,0-.31-.65,1.79,1.79,0,0,0-.5-.49,1.19,1.19,0,0,0-.66-.2H54.76v9.45H53.58V32.28h6.65a2.09,2.09,0,0,1,1,.25,2.71,2.71,0,0,1,.82.65,3.21,3.21,0,0,1,.57,1,3.53,3.53,0,0,1,.21,1.23,3.26,3.26,0,0,1-.2,1.12,3.37,3.37,0,0,1-.55.94,2.7,2.7,0,0,1-.81.66,2.13,2.13,0,0,1-1,.24L62,41.65l-1.11.53Z"/><path class="c" d="M19.8,32.28v1.06H15.88v9.45H14.7V33.34H10.8V32.28Z"/><path class="c" d="M21.28,38.73a4.52,4.52,0,0,0,.49,1.07,4.7,4.7,0,0,0,.77.9,4.07,4.07,0,0,0,1,.66l-.74.92a5.07,5.07,0,0,1-1.17-.83,4.79,4.79,0,0,1-.88-1.12A6.06,6.06,0,0,1,20.17,39a5.47,5.47,0,0,1-.2-1.46,5.18,5.18,0,0,1,.42-2.07,5.43,5.43,0,0,1,1.14-1.68,5.36,5.36,0,0,1,1.69-1.14,5.41,5.41,0,0,1,4.18,0,5.36,5.36,0,0,1,1.69,1.14,5.43,5.43,0,0,1,1.14,1.68,5.18,5.18,0,0,1,.42,2.07,5.24,5.24,0,0,1-.81,2.82,5.48,5.48,0,0,1-.93,1.11,4.82,4.82,0,0,1-1.19.81l-.62-.94a4.33,4.33,0,0,0,1-.65,4.12,4.12,0,0,0,.78-.89,4.55,4.55,0,0,0,.5-1.07,3.6,3.6,0,0,0,.19-1.18A4,4,0,0,0,29.2,36a4.3,4.3,0,0,0-.91-1.34A4.47,4.47,0,0,0,27,33.71a3.9,3.9,0,0,0-1.62-.35,4,4,0,0,0-1.64.35,4.47,4.47,0,0,0-1.34.91A4.3,4.3,0,0,0,21.44,36a3.82,3.82,0,0,0-.34,1.59A3.88,3.88,0,0,0,21.28,38.73Z"/><path class="c" d="M32.47,32.28h6.65a2,2,0,0,1,1,.25,2.75,2.75,0,0,1,.83.65,3.4,3.4,0,0,1,.56,1,3.53,3.53,0,0,1,.21,1.23,2.46,2.46,0,0,1-.09.67,2.63,2.63,0,0,1-.25.6,3.61,3.61,0,0,1-.33.5,3.7,3.7,0,0,1-.36.4c.12.12.23.26.35.4a3.49,3.49,0,0,1,.33.49,3.64,3.64,0,0,1,.25.57,2,2,0,0,1,.1.64,3.53,3.53,0,0,1-.21,1.23,3.28,3.28,0,0,1-.56,1,3,3,0,0,1-.83.66,2.13,2.13,0,0,1-1,.24H32.47Zm7,4.72a2.72,2.72,0,0,0,.67-.75,1.73,1.73,0,0,0,.29-.89,2.6,2.6,0,0,0-.11-.7A2.32,2.32,0,0,0,40,34a1.57,1.57,0,0,0-.48-.48,1.22,1.22,0,0,0-.66-.19H33.65v8.39h5.28a1.14,1.14,0,0,0,.66-.19,1.57,1.57,0,0,0,.48-.48,2,2,0,0,0,.29-.65,2.54,2.54,0,0,0,.11-.7,1.67,1.67,0,0,0-.29-.89,2.66,2.66,0,0,0-.69-.76H37.38V37Z"/><path class="c" d="M43.6,42.79V32.28h8v1.06H44.78v8.39H51.6v1.06Zm7.86-5.49v1.06h-5V37.3Z"/><path class="c" d="M58.5,37.3h1.62a1.27,1.27,0,0,0,.69-.18,1.83,1.83,0,0,0,.48-.48,1.72,1.72,0,0,0,.27-.62,2.47,2.47,0,0,0,.09-.64,2.54,2.54,0,0,0-.11-.7,2.3,2.3,0,0,0-.31-.65,1.79,1.79,0,0,0-.5-.49,1.19,1.19,0,0,0-.66-.2H54.81v9.45H53.63V32.28h6.65a2.09,2.09,0,0,1,1,.25,2.71,2.71,0,0,1,.82.65,3.21,3.21,0,0,1,.57,1,3.53,3.53,0,0,1,.21,1.23,3.26,3.26,0,0,1-.2,1.12,3.37,3.37,0,0,1-.55.94,2.7,2.7,0,0,1-.81.66,2.12,2.12,0,0,1-1,.24l1.6,3.17-1,.69Z"/><path class="b" d="M25.15,53.08V46.49H29.9v-.74H24.32v7.33ZM26.27,50h3.54v-.74H26.27Z"/><path class="b" d="M36.89,53.08v-.74H32.14V46.49h4.75v-.74H31.31v7.33ZM33.29,50H36.8v-.74H33.29Z"/><path class="b" d="M42.54,52.34a1.19,1.19,0,0,0,1-.37,1.36,1.36,0,0,0,.31-.93,1.38,1.38,0,0,0-.22-.81,1.05,1.05,0,0,0-.72-.42V49a1.46,1.46,0,0,1,.69.16,1.86,1.86,0,0,1,.57.43,2.44,2.44,0,0,1,.39.64,2.28,2.28,0,0,1,.14.77,2.24,2.24,0,0,1-.15.84,2.15,2.15,0,0,1-.39.64,2,2,0,0,1-.58.41,1.65,1.65,0,0,1-.69.15H38.33v-.74Zm-2.22-5.85a1.2,1.2,0,0,0-1,.36,1.36,1.36,0,0,0-.31.93,1.41,1.41,0,0,0,.22.82A1.05,1.05,0,0,0,40,49v.77a1.46,1.46,0,0,1-.68-.17,1.86,1.86,0,0,1-.57-.43,1.81,1.81,0,0,1-.39-.64,2.19,2.19,0,0,1-.14-.77,2.51,2.51,0,0,1,.14-.84,1.83,1.83,0,0,1,1-1,1.87,1.87,0,0,1,.71-.14h4.52v.74Z"/><polygon class="b" points="52.23 45.75 52.23 46.49 49.49 46.49 49.49 53.08 48.66 53.08 48.66 46.49 45.94 46.49 45.94 45.75 52.23 45.75"/><path class="c" d="M24.32,53.08V45.75H29.9v.74H25.15v6.59Zm5.49-3.83V50H26.27v-.74Z"/><path class="c" d="M31.32,53.08V45.75h5.59v.74H32.15v5.85h4.76v.74Zm5.49-3.83V50H33.3v-.74Z"/><path class="c" d="M40.35,46.49a1.19,1.19,0,0,0-1,.36,1.32,1.32,0,0,0-.32.93,1.41,1.41,0,0,0,.22.82A1.05,1.05,0,0,0,40,49v.77a1.53,1.53,0,0,1-.69-.17,2,2,0,0,1-1-1.07,2.19,2.19,0,0,1-.14-.77,2.51,2.51,0,0,1,.14-.84,2.15,2.15,0,0,1,.39-.64,2,2,0,0,1,.58-.41,1.82,1.82,0,0,1,.7-.14h4.53v.74Zm2.22,5.85a1.17,1.17,0,0,0,1-.37,1.36,1.36,0,0,0,.32-.93,1.38,1.38,0,0,0-.23-.81,1,1,0,0,0-.71-.42V49a1.45,1.45,0,0,1,.68.16,1.86,1.86,0,0,1,.57.43,1.94,1.94,0,0,1,.39.65,2,2,0,0,1,.14.76,2.47,2.47,0,0,1-.14.84,2,2,0,0,1-.4.64,1.73,1.73,0,0,1-1.27.56H38.35v-.74Z"/><path class="c" d="M52.26,45.75v.74H49.52v6.59H48.7V46.49H46v-.74Z"/><path class="a" d="M16.4,29.29a1.86,1.86,0,1,1,1.87-1.86A1.86,1.86,0,0,1,16.4,29.29Zm0-2.62a.77.77,0,1,0,.77.76A.76.76,0,0,0,16.4,26.67Z"/><path class="a" d="M44.65,18.12A2.13,2.13,0,1,1,46.78,16,2.13,2.13,0,0,1,44.65,18.12Zm0-3.16a1,1,0,1,0,1,1A1,1,0,0,0,44.65,15Z"/><path class="a" d="M46.2,15.72a1.24,1.24,0,0,1,0,.27,1.55,1.55,0,0,1-.24.83,22.61,22.61,0,0,1,10.12,8.75h.49a2.33,2.33,0,0,1,.63-.26A23.69,23.69,0,0,0,46.2,15.72Z"/><path class="a" d="M57.75,30.17a2.74,2.74,0,1,1,2.74-2.74A2.74,2.74,0,0,1,57.75,30.17Zm0-4.38a1.65,1.65,0,1,0,1.65,1.64A1.65,1.65,0,0,0,57.75,25.79Z"/><path class="a" d="M16.4,50.73A2.74,2.74,0,1,1,19.14,48,2.74,2.74,0,0,1,16.4,50.73Zm0-4.38A1.64,1.64,0,1,0,18.05,48,1.64,1.64,0,0,0,16.4,46.35Z"/><path class="a" d="M56.49,51.63a2.13,2.13,0,1,1,2.13-2.13A2.13,2.13,0,0,1,56.49,51.63Zm0-3.16a1,1,0,1,0,1,1A1,1,0,0,0,56.49,48.47Z"/><path class="a" d="M56.21,51.05a1.6,1.6,0,0,1-.7-.32H55.1a22.7,22.7,0,0,1-7.88,6.68,2.19,2.19,0,0,1,.23,1v.12A23.71,23.71,0,0,0,56.21,51.05Z"/><path class="a" d="M45.26,61.13A2.74,2.74,0,1,1,48,58.4,2.73,2.73,0,0,1,45.26,61.13Zm0-4.37a1.64,1.64,0,1,0,1.65,1.64A1.64,1.64,0,0,0,45.26,56.76Z"/><path class="a" d="M62.08,45.25a2.13,2.13,0,1,1,2.12-2.12A2.13,2.13,0,0,1,62.08,45.25Zm0-3.15a1,1,0,1,0,1,1A1,1,0,0,0,62.08,42.1Z"/><path class="e" d="M25.31,39.74a2.13,2.13,0,1,1,2.13-2.13A2.12,2.12,0,0,1,25.31,39.74Zm0-3.16a1,1,0,1,0,1,1A1,1,0,0,0,25.31,36.58Z"/><path class="a" d="M28.94,68.81v-.13a3.18,3.18,0,0,1,.07-.62,2.14,2.14,0,0,1,.27-.63,3.41,3.41,0,0,1,.54-.66,6.59,6.59,0,0,1,.93-.7c.21-.14.4-.26.56-.38a3.34,3.34,0,0,0,.38-.32,1,1,0,0,0,.28-.73.78.78,0,0,0-.24-.62,1,1,0,0,0-.66-.22,1.3,1.3,0,0,0-.73.22,2.1,2.1,0,0,0-.63.63l-.72-.5a2.89,2.89,0,0,1,.87-.87,2.22,2.22,0,0,1,1.26-.34,2.19,2.19,0,0,1,.75.11,1.59,1.59,0,0,1,.57.33,1.43,1.43,0,0,1,.36.52,1.63,1.63,0,0,1,.13.67,2,2,0,0,1-.06.5,1.57,1.57,0,0,1-.21.46,2.46,2.46,0,0,1-.41.47,8.1,8.1,0,0,1-.68.5,6.74,6.74,0,0,0-1.05.79,1.47,1.47,0,0,0-.44.65H33v.87Z"/><path class="a" d="M33.64,65.92a4.19,4.19,0,0,1,.16-1.22,3,3,0,0,1,.44-1,2.07,2.07,0,0,1,.72-.6,2.35,2.35,0,0,1,1.94,0,2,2,0,0,1,.71.6,3,3,0,0,1,.44,1,4.58,4.58,0,0,1,.15,1.22,4.71,4.71,0,0,1-.15,1.23,2.92,2.92,0,0,1-.44.94,2.07,2.07,0,0,1-.71.61,2.25,2.25,0,0,1-1.94,0,2.1,2.1,0,0,1-.72-.61,2.92,2.92,0,0,1-.44-.94A4.31,4.31,0,0,1,33.64,65.92Zm1,0A3,3,0,0,0,35,67.53a1.11,1.11,0,0,0,1,.52,1.06,1.06,0,0,0,1-.52,3.91,3.91,0,0,0,0-3.21,1.08,1.08,0,0,0-1-.52,1.11,1.11,0,0,0-1,.51A3.06,3.06,0,0,0,34.61,65.92Z"/><path class="a" d="M38.77,68.81v-.13a2.56,2.56,0,0,1,.07-.62,2.11,2.11,0,0,1,.26-.63,3.15,3.15,0,0,1,.55-.66,5.92,5.92,0,0,1,.92-.7c.22-.14.4-.26.56-.38a2.64,2.64,0,0,0,.38-.32,1.26,1.26,0,0,0,.22-.33,1.25,1.25,0,0,0,.06-.4.78.78,0,0,0-.24-.62.92.92,0,0,0-.66-.22,1.32,1.32,0,0,0-.73.22,2.19,2.19,0,0,0-.62.63l-.73-.5a3.13,3.13,0,0,1,.87-.87,2.24,2.24,0,0,1,1.26-.34,2.29,2.29,0,0,1,.76.11,1.78,1.78,0,0,1,.57.33,1.43,1.43,0,0,1,.36.52,1.81,1.81,0,0,1,.12.67,2.65,2.65,0,0,1,0,.5,1.57,1.57,0,0,1-.21.46,2.22,2.22,0,0,1-.42.47,6.73,6.73,0,0,1-.68.5,6.74,6.74,0,0,0-1,.79,1.43,1.43,0,0,0-.43.65h2.87v.87Z"/><path class="a" d="M43.51,68.81v-.87h1.07V64a2.61,2.61,0,0,1-.5.19,2.28,2.28,0,0,1-.55.08v-.89a2.22,2.22,0,0,0,.61-.1,1.29,1.29,0,0,0,.47-.27h.91v4.9h.95v.87Z"/></svg>